<mxfile host="app.diagrams.net" modified="2024-01-26T15:59:45.912Z" agent="Mozilla/5.0 (Windows NT 10.0; Win64; x64) AppleWebKit/537.36 (KHTML, like Gecko) Chrome/120.0.0.0 Safari/537.36" etag="dy1wNiMqV5h6rYSx2C5u" version="22.1.21" type="device">
  <diagram name="Page-1" id="q2rL_VKyclA_JpW7a91s">
    <mxGraphModel dx="658" dy="370" grid="1" gridSize="10" guides="1" tooltips="1" connect="1" arrows="1" fold="1" page="1" pageScale="1" pageWidth="850" pageHeight="1100" math="0" shadow="0">
      <root>
        <mxCell id="0" />
        <mxCell id="1" parent="0" />
        <mxCell id="zW5cg0SdhXVSHi8XT4jg-17" value="" style="rounded=1;whiteSpace=wrap;html=1;fillColor=#dae8fc;strokeColor=#6c8ebf;" vertex="1" parent="1">
          <mxGeometry x="1860" y="1250" width="400" height="210" as="geometry" />
        </mxCell>
        <mxCell id="zW5cg0SdhXVSHi8XT4jg-10" value="" style="rounded=1;whiteSpace=wrap;html=1;fillColor=#f8cecc;strokeColor=#b85450;" vertex="1" parent="1">
          <mxGeometry x="1880" y="1550" width="400" height="210" as="geometry" />
        </mxCell>
        <mxCell id="6tnuCzHY1u2nvvSiSaDE-1" value="" style="shape=note;whiteSpace=wrap;html=1;backgroundOutline=1;darkOpacity=0.05;" parent="1" vertex="1">
          <mxGeometry x="210" y="140" width="370" height="190" as="geometry" />
        </mxCell>
        <mxCell id="6tnuCzHY1u2nvvSiSaDE-2" value="" style="shape=parallelogram;perimeter=parallelogramPerimeter;whiteSpace=wrap;html=1;fixedSize=1;fillColor=#dae8fc;strokeColor=#6c8ebf;" parent="1" vertex="1">
          <mxGeometry x="500" y="170" width="70" height="30" as="geometry" />
        </mxCell>
        <mxCell id="6tnuCzHY1u2nvvSiSaDE-6" style="edgeStyle=orthogonalEdgeStyle;rounded=0;orthogonalLoop=1;jettySize=auto;html=1;" parent="1" source="6tnuCzHY1u2nvvSiSaDE-3" target="6tnuCzHY1u2nvvSiSaDE-5" edge="1">
          <mxGeometry relative="1" as="geometry" />
        </mxCell>
        <mxCell id="6tnuCzHY1u2nvvSiSaDE-3" value="" style="shape=parallelogram;perimeter=parallelogramPerimeter;whiteSpace=wrap;html=1;fixedSize=1;fillColor=#d5e8d4;strokeColor=#82b366;" parent="1" vertex="1">
          <mxGeometry x="500" y="200" width="70" height="30" as="geometry" />
        </mxCell>
        <mxCell id="6tnuCzHY1u2nvvSiSaDE-4" value="" style="shape=parallelogram;perimeter=parallelogramPerimeter;whiteSpace=wrap;html=1;fixedSize=1;fillColor=#f8cecc;strokeColor=#b85450;" parent="1" vertex="1">
          <mxGeometry x="500" y="230" width="70" height="30" as="geometry" />
        </mxCell>
        <mxCell id="6tnuCzHY1u2nvvSiSaDE-5" value="Actor" style="shape=umlActor;verticalLabelPosition=bottom;verticalAlign=top;html=1;outlineConnect=0;" parent="1" vertex="1">
          <mxGeometry x="680" y="240" width="30" height="60" as="geometry" />
        </mxCell>
        <mxCell id="6tnuCzHY1u2nvvSiSaDE-7" value="регистрация" style="text;html=1;strokeColor=none;fillColor=none;align=center;verticalAlign=middle;whiteSpace=wrap;rounded=0;" parent="1" vertex="1">
          <mxGeometry x="700" y="200" width="100" height="30" as="geometry" />
        </mxCell>
        <mxCell id="6tnuCzHY1u2nvvSiSaDE-8" value="база данных" style="shape=cylinder3;whiteSpace=wrap;html=1;boundedLbl=1;backgroundOutline=1;size=15;" parent="1" vertex="1">
          <mxGeometry x="1050" y="240" width="60" height="80" as="geometry" />
        </mxCell>
        <mxCell id="6tnuCzHY1u2nvvSiSaDE-9" value="" style="shape=flexArrow;endArrow=classic;html=1;rounded=0;" parent="1" edge="1">
          <mxGeometry width="50" height="50" relative="1" as="geometry">
            <mxPoint x="970" y="280" as="sourcePoint" />
            <mxPoint x="1040" y="280" as="targetPoint" />
          </mxGeometry>
        </mxCell>
        <mxCell id="6tnuCzHY1u2nvvSiSaDE-10" value="ORM" style="text;html=1;strokeColor=none;fillColor=none;align=center;verticalAlign=middle;whiteSpace=wrap;rounded=0;" parent="1" vertex="1">
          <mxGeometry x="960" y="240" width="60" height="30" as="geometry" />
        </mxCell>
        <mxCell id="6tnuCzHY1u2nvvSiSaDE-21" style="edgeStyle=orthogonalEdgeStyle;rounded=0;orthogonalLoop=1;jettySize=auto;html=1;" parent="1" source="6tnuCzHY1u2nvvSiSaDE-11" edge="1">
          <mxGeometry relative="1" as="geometry">
            <mxPoint x="970" y="280" as="targetPoint" />
          </mxGeometry>
        </mxCell>
        <mxCell id="6tnuCzHY1u2nvvSiSaDE-11" value="html form" style="shape=card;whiteSpace=wrap;html=1;" parent="1" vertex="1">
          <mxGeometry x="740" y="270" width="80" height="100" as="geometry" />
        </mxCell>
        <mxCell id="6tnuCzHY1u2nvvSiSaDE-12" value="User" style="swimlane;fontStyle=0;childLayout=stackLayout;horizontal=1;startSize=30;horizontalStack=0;resizeParent=1;resizeParentMax=0;resizeLast=0;collapsible=1;marginBottom=0;whiteSpace=wrap;html=1;" parent="1" vertex="1">
          <mxGeometry x="660" y="380" width="140" height="210" as="geometry" />
        </mxCell>
        <mxCell id="6tnuCzHY1u2nvvSiSaDE-13" value="id" style="text;strokeColor=none;fillColor=none;align=left;verticalAlign=middle;spacingLeft=4;spacingRight=4;overflow=hidden;points=[[0,0.5],[1,0.5]];portConstraint=eastwest;rotatable=0;whiteSpace=wrap;html=1;" parent="6tnuCzHY1u2nvvSiSaDE-12" vertex="1">
          <mxGeometry y="30" width="140" height="30" as="geometry" />
        </mxCell>
        <mxCell id="6tnuCzHY1u2nvvSiSaDE-14" value="username" style="text;strokeColor=none;fillColor=none;align=left;verticalAlign=middle;spacingLeft=4;spacingRight=4;overflow=hidden;points=[[0,0.5],[1,0.5]];portConstraint=eastwest;rotatable=0;whiteSpace=wrap;html=1;" parent="6tnuCzHY1u2nvvSiSaDE-12" vertex="1">
          <mxGeometry y="60" width="140" height="30" as="geometry" />
        </mxCell>
        <mxCell id="6tnuCzHY1u2nvvSiSaDE-15" value="password" style="text;strokeColor=none;fillColor=none;align=left;verticalAlign=middle;spacingLeft=4;spacingRight=4;overflow=hidden;points=[[0,0.5],[1,0.5]];portConstraint=eastwest;rotatable=0;whiteSpace=wrap;html=1;" parent="6tnuCzHY1u2nvvSiSaDE-12" vertex="1">
          <mxGeometry y="90" width="140" height="30" as="geometry" />
        </mxCell>
        <mxCell id="6tnuCzHY1u2nvvSiSaDE-17" value="First name:" style="text;strokeColor=none;fillColor=none;align=left;verticalAlign=middle;spacingLeft=4;spacingRight=4;overflow=hidden;points=[[0,0.5],[1,0.5]];portConstraint=eastwest;rotatable=0;whiteSpace=wrap;html=1;" parent="6tnuCzHY1u2nvvSiSaDE-12" vertex="1">
          <mxGeometry y="120" width="140" height="30" as="geometry" />
        </mxCell>
        <mxCell id="6tnuCzHY1u2nvvSiSaDE-18" value="Last name:" style="text;strokeColor=none;fillColor=none;align=left;verticalAlign=middle;spacingLeft=4;spacingRight=4;overflow=hidden;points=[[0,0.5],[1,0.5]];portConstraint=eastwest;rotatable=0;whiteSpace=wrap;html=1;" parent="6tnuCzHY1u2nvvSiSaDE-12" vertex="1">
          <mxGeometry y="150" width="140" height="30" as="geometry" />
        </mxCell>
        <mxCell id="6tnuCzHY1u2nvvSiSaDE-19" value="Email address:" style="text;strokeColor=none;fillColor=none;align=left;verticalAlign=middle;spacingLeft=4;spacingRight=4;overflow=hidden;points=[[0,0.5],[1,0.5]];portConstraint=eastwest;rotatable=0;whiteSpace=wrap;html=1;" parent="6tnuCzHY1u2nvvSiSaDE-12" vertex="1">
          <mxGeometry y="180" width="140" height="30" as="geometry" />
        </mxCell>
        <mxCell id="6tnuCzHY1u2nvvSiSaDE-20" value="Сущность / Модель / Строка в базе данных" style="text;html=1;strokeColor=none;fillColor=none;align=center;verticalAlign=middle;whiteSpace=wrap;rounded=0;" parent="1" vertex="1">
          <mxGeometry x="810" y="410" width="130" height="40" as="geometry" />
        </mxCell>
        <mxCell id="6tnuCzHY1u2nvvSiSaDE-22" value="django(view)" style="shape=cube;whiteSpace=wrap;html=1;boundedLbl=1;backgroundOutline=1;darkOpacity=0.05;darkOpacity2=0.1;fillColor=#e1d5e7;strokeColor=#9673a6;" parent="1" vertex="1">
          <mxGeometry x="850" y="300" width="120" height="80" as="geometry" />
        </mxCell>
        <mxCell id="6tnuCzHY1u2nvvSiSaDE-23" value="Человек" style="shape=umlActor;verticalLabelPosition=bottom;verticalAlign=top;html=1;outlineConnect=0;" parent="1" vertex="1">
          <mxGeometry x="120" y="760" width="30" height="60" as="geometry" />
        </mxCell>
        <mxCell id="6tnuCzHY1u2nvvSiSaDE-24" value="html form" style="shape=card;whiteSpace=wrap;html=1;" parent="1" vertex="1">
          <mxGeometry x="190" y="750" width="80" height="100" as="geometry" />
        </mxCell>
        <mxCell id="6tnuCzHY1u2nvvSiSaDE-25" value="Item" style="swimlane;fontStyle=0;childLayout=stackLayout;horizontal=1;startSize=30;horizontalStack=0;resizeParent=1;resizeParentMax=0;resizeLast=0;collapsible=1;marginBottom=0;whiteSpace=wrap;html=1;fillColor=#e1d5e7;strokeColor=#9673a6;" parent="1" vertex="1">
          <mxGeometry x="70" y="860" width="160" height="180" as="geometry" />
        </mxCell>
        <mxCell id="6tnuCzHY1u2nvvSiSaDE-26" value="id" style="text;strokeColor=none;fillColor=none;align=left;verticalAlign=middle;spacingLeft=4;spacingRight=4;overflow=hidden;points=[[0,0.5],[1,0.5]];portConstraint=eastwest;rotatable=0;whiteSpace=wrap;html=1;" parent="6tnuCzHY1u2nvvSiSaDE-25" vertex="1">
          <mxGeometry y="30" width="160" height="30" as="geometry" />
        </mxCell>
        <mxCell id="6tnuCzHY1u2nvvSiSaDE-27" value="title" style="text;strokeColor=none;fillColor=none;align=left;verticalAlign=middle;spacingLeft=4;spacingRight=4;overflow=hidden;points=[[0,0.5],[1,0.5]];portConstraint=eastwest;rotatable=0;whiteSpace=wrap;html=1;" parent="6tnuCzHY1u2nvvSiSaDE-25" vertex="1">
          <mxGeometry y="60" width="160" height="30" as="geometry" />
        </mxCell>
        <mxCell id="6tnuCzHY1u2nvvSiSaDE-28" value="description" style="text;strokeColor=none;fillColor=none;align=left;verticalAlign=middle;spacingLeft=4;spacingRight=4;overflow=hidden;points=[[0,0.5],[1,0.5]];portConstraint=eastwest;rotatable=0;whiteSpace=wrap;html=1;" parent="6tnuCzHY1u2nvvSiSaDE-25" vertex="1">
          <mxGeometry y="90" width="160" height="30" as="geometry" />
        </mxCell>
        <mxCell id="6tnuCzHY1u2nvvSiSaDE-29" value="price" style="text;strokeColor=none;fillColor=none;align=left;verticalAlign=middle;spacingLeft=4;spacingRight=4;overflow=hidden;points=[[0,0.5],[1,0.5]];portConstraint=eastwest;rotatable=0;whiteSpace=wrap;html=1;" parent="6tnuCzHY1u2nvvSiSaDE-25" vertex="1">
          <mxGeometry y="120" width="160" height="30" as="geometry" />
        </mxCell>
        <mxCell id="6tnuCzHY1u2nvvSiSaDE-30" value="category" style="text;strokeColor=none;fillColor=none;align=left;verticalAlign=middle;spacingLeft=4;spacingRight=4;overflow=hidden;points=[[0,0.5],[1,0.5]];portConstraint=eastwest;rotatable=0;whiteSpace=wrap;html=1;" parent="6tnuCzHY1u2nvvSiSaDE-25" vertex="1">
          <mxGeometry y="150" width="160" height="30" as="geometry" />
        </mxCell>
        <mxCell id="6tnuCzHY1u2nvvSiSaDE-32" value="item/list/page=1" style="shape=step;perimeter=stepPerimeter;whiteSpace=wrap;html=1;fixedSize=1;fillColor=#d5e8d4;strokeColor=#82b366;" parent="1" vertex="1">
          <mxGeometry x="360" y="960" width="160" height="30" as="geometry" />
        </mxCell>
        <mxCell id="6tnuCzHY1u2nvvSiSaDE-33" value="item/detail/1" style="shape=step;perimeter=stepPerimeter;whiteSpace=wrap;html=1;fixedSize=1;fillColor=#d5e8d4;strokeColor=#82b366;" parent="1" vertex="1">
          <mxGeometry x="360" y="1040" width="110" height="30" as="geometry" />
        </mxCell>
        <mxCell id="6tnuCzHY1u2nvvSiSaDE-34" value="список товаров" style="text;html=1;strokeColor=none;fillColor=none;align=center;verticalAlign=middle;whiteSpace=wrap;rounded=0;" parent="1" vertex="1">
          <mxGeometry x="395" y="920" width="60" height="30" as="geometry" />
        </mxCell>
        <mxCell id="6tnuCzHY1u2nvvSiSaDE-35" value="детально об одном товаре" style="text;html=1;strokeColor=none;fillColor=none;align=center;verticalAlign=middle;whiteSpace=wrap;rounded=0;" parent="1" vertex="1">
          <mxGeometry x="395" y="1000" width="60" height="30" as="geometry" />
        </mxCell>
        <mxCell id="6tnuCzHY1u2nvvSiSaDE-36" value="item/public/" style="shape=step;perimeter=stepPerimeter;whiteSpace=wrap;html=1;fixedSize=1;fillColor=#dae8fc;strokeColor=#6c8ebf;" parent="1" vertex="1">
          <mxGeometry x="370" y="1140" width="110" height="30" as="geometry" />
        </mxCell>
        <mxCell id="6tnuCzHY1u2nvvSiSaDE-37" value="публикация своего товара" style="text;html=1;strokeColor=none;fillColor=none;align=center;verticalAlign=middle;whiteSpace=wrap;rounded=0;" parent="1" vertex="1">
          <mxGeometry x="405" y="1100" width="60" height="30" as="geometry" />
        </mxCell>
        <mxCell id="6tnuCzHY1u2nvvSiSaDE-38" value="item/change/1" style="shape=step;perimeter=stepPerimeter;whiteSpace=wrap;html=1;fixedSize=1;fillColor=#fff2cc;strokeColor=#d6b656;" parent="1" vertex="1">
          <mxGeometry x="370" y="1240" width="110" height="30" as="geometry" />
        </mxCell>
        <mxCell id="6tnuCzHY1u2nvvSiSaDE-39" value="изменение товара" style="text;html=1;strokeColor=none;fillColor=none;align=center;verticalAlign=middle;whiteSpace=wrap;rounded=0;" parent="1" vertex="1">
          <mxGeometry x="405" y="1200" width="60" height="30" as="geometry" />
        </mxCell>
        <mxCell id="6tnuCzHY1u2nvvSiSaDE-40" value="item/delete/1" style="shape=step;perimeter=stepPerimeter;whiteSpace=wrap;html=1;fixedSize=1;fillColor=#f8cecc;strokeColor=#b85450;" parent="1" vertex="1">
          <mxGeometry x="380" y="1330" width="110" height="30" as="geometry" />
        </mxCell>
        <mxCell id="6tnuCzHY1u2nvvSiSaDE-41" value="удаление товара" style="text;html=1;strokeColor=none;fillColor=none;align=center;verticalAlign=middle;whiteSpace=wrap;rounded=0;" parent="1" vertex="1">
          <mxGeometry x="415" y="1290" width="60" height="30" as="geometry" />
        </mxCell>
        <mxCell id="6tnuCzHY1u2nvvSiSaDE-42" value="&lt;span style=&quot;font-size: 25px;&quot;&gt;CRUD&lt;/span&gt;" style="text;html=1;strokeColor=none;fillColor=none;align=center;verticalAlign=middle;whiteSpace=wrap;rounded=0;" parent="1" vertex="1">
          <mxGeometry x="160" y="1120" width="90" height="40" as="geometry" />
        </mxCell>
        <mxCell id="6tnuCzHY1u2nvvSiSaDE-43" value="база данных" style="shape=cylinder3;whiteSpace=wrap;html=1;boundedLbl=1;backgroundOutline=1;size=15;" parent="1" vertex="1">
          <mxGeometry x="600" y="770" width="60" height="80" as="geometry" />
        </mxCell>
        <mxCell id="6tnuCzHY1u2nvvSiSaDE-46" style="edgeStyle=orthogonalEdgeStyle;rounded=0;orthogonalLoop=1;jettySize=auto;html=1;" parent="1" source="6tnuCzHY1u2nvvSiSaDE-44" target="6tnuCzHY1u2nvvSiSaDE-43" edge="1">
          <mxGeometry relative="1" as="geometry" />
        </mxCell>
        <mxCell id="6tnuCzHY1u2nvvSiSaDE-44" value="django(view)" style="shape=cube;whiteSpace=wrap;html=1;boundedLbl=1;backgroundOutline=1;darkOpacity=0.05;darkOpacity2=0.1;fillColor=#ffe6cc;strokeColor=#d79b00;" parent="1" vertex="1">
          <mxGeometry x="370" y="780" width="120" height="80" as="geometry" />
        </mxCell>
        <mxCell id="6tnuCzHY1u2nvvSiSaDE-45" style="edgeStyle=orthogonalEdgeStyle;rounded=0;orthogonalLoop=1;jettySize=auto;html=1;entryX=0;entryY=0;entryDx=0;entryDy=30;entryPerimeter=0;" parent="1" source="6tnuCzHY1u2nvvSiSaDE-24" target="6tnuCzHY1u2nvvSiSaDE-44" edge="1">
          <mxGeometry relative="1" as="geometry" />
        </mxCell>
        <mxCell id="6tnuCzHY1u2nvvSiSaDE-47" value="" style="shape=flexArrow;endArrow=classic;html=1;rounded=0;" parent="1" edge="1">
          <mxGeometry width="50" height="50" relative="1" as="geometry">
            <mxPoint x="520" y="810.0000000000001" as="sourcePoint" />
            <mxPoint x="590" y="810.0000000000001" as="targetPoint" />
          </mxGeometry>
        </mxCell>
        <mxCell id="6tnuCzHY1u2nvvSiSaDE-48" value="ORM" style="text;html=1;strokeColor=none;fillColor=none;align=center;verticalAlign=middle;whiteSpace=wrap;rounded=0;" parent="1" vertex="1">
          <mxGeometry x="510" y="770.0000000000001" width="60" height="30" as="geometry" />
        </mxCell>
        <mxCell id="xW_o7UDnN0EhlQ_JEsIn-1" value="Item" style="swimlane;fontStyle=0;childLayout=stackLayout;horizontal=1;startSize=30;horizontalStack=0;resizeParent=1;resizeParentMax=0;resizeLast=0;collapsible=1;marginBottom=0;whiteSpace=wrap;html=1;fillColor=#e1d5e7;strokeColor=#9673a6;" parent="1" vertex="1">
          <mxGeometry x="880" y="880" width="160" height="180" as="geometry" />
        </mxCell>
        <mxCell id="xW_o7UDnN0EhlQ_JEsIn-2" value="id" style="text;strokeColor=none;fillColor=none;align=left;verticalAlign=middle;spacingLeft=4;spacingRight=4;overflow=hidden;points=[[0,0.5],[1,0.5]];portConstraint=eastwest;rotatable=0;whiteSpace=wrap;html=1;" parent="xW_o7UDnN0EhlQ_JEsIn-1" vertex="1">
          <mxGeometry y="30" width="160" height="30" as="geometry" />
        </mxCell>
        <mxCell id="xW_o7UDnN0EhlQ_JEsIn-3" value="title" style="text;strokeColor=none;fillColor=none;align=left;verticalAlign=middle;spacingLeft=4;spacingRight=4;overflow=hidden;points=[[0,0.5],[1,0.5]];portConstraint=eastwest;rotatable=0;whiteSpace=wrap;html=1;" parent="xW_o7UDnN0EhlQ_JEsIn-1" vertex="1">
          <mxGeometry y="60" width="160" height="30" as="geometry" />
        </mxCell>
        <mxCell id="xW_o7UDnN0EhlQ_JEsIn-4" value="description" style="text;strokeColor=none;fillColor=none;align=left;verticalAlign=middle;spacingLeft=4;spacingRight=4;overflow=hidden;points=[[0,0.5],[1,0.5]];portConstraint=eastwest;rotatable=0;whiteSpace=wrap;html=1;" parent="xW_o7UDnN0EhlQ_JEsIn-1" vertex="1">
          <mxGeometry y="90" width="160" height="30" as="geometry" />
        </mxCell>
        <mxCell id="xW_o7UDnN0EhlQ_JEsIn-5" value="price" style="text;strokeColor=none;fillColor=none;align=left;verticalAlign=middle;spacingLeft=4;spacingRight=4;overflow=hidden;points=[[0,0.5],[1,0.5]];portConstraint=eastwest;rotatable=0;whiteSpace=wrap;html=1;" parent="xW_o7UDnN0EhlQ_JEsIn-1" vertex="1">
          <mxGeometry y="120" width="160" height="30" as="geometry" />
        </mxCell>
        <mxCell id="xW_o7UDnN0EhlQ_JEsIn-6" value="category" style="text;strokeColor=none;fillColor=none;align=left;verticalAlign=middle;spacingLeft=4;spacingRight=4;overflow=hidden;points=[[0,0.5],[1,0.5]];portConstraint=eastwest;rotatable=0;whiteSpace=wrap;html=1;" parent="xW_o7UDnN0EhlQ_JEsIn-1" vertex="1">
          <mxGeometry y="150" width="160" height="30" as="geometry" />
        </mxCell>
        <mxCell id="xW_o7UDnN0EhlQ_JEsIn-7" value="ItemRating" style="swimlane;fontStyle=0;childLayout=stackLayout;horizontal=1;startSize=30;horizontalStack=0;resizeParent=1;resizeParentMax=0;resizeLast=0;collapsible=1;marginBottom=0;whiteSpace=wrap;html=1;fillColor=#f8cecc;strokeColor=#b85450;" parent="1" vertex="1">
          <mxGeometry x="1200" y="880" width="160" height="150" as="geometry" />
        </mxCell>
        <mxCell id="xW_o7UDnN0EhlQ_JEsIn-8" value="id" style="text;strokeColor=none;fillColor=none;align=left;verticalAlign=middle;spacingLeft=4;spacingRight=4;overflow=hidden;points=[[0,0.5],[1,0.5]];portConstraint=eastwest;rotatable=0;whiteSpace=wrap;html=1;" parent="xW_o7UDnN0EhlQ_JEsIn-7" vertex="1">
          <mxGeometry y="30" width="160" height="30" as="geometry" />
        </mxCell>
        <mxCell id="xW_o7UDnN0EhlQ_JEsIn-9" value="item(item_id)" style="text;strokeColor=#b85450;fillColor=#f8cecc;align=left;verticalAlign=middle;spacingLeft=4;spacingRight=4;overflow=hidden;points=[[0,0.5],[1,0.5]];portConstraint=eastwest;rotatable=0;whiteSpace=wrap;html=1;" parent="xW_o7UDnN0EhlQ_JEsIn-7" vertex="1">
          <mxGeometry y="60" width="160" height="30" as="geometry" />
        </mxCell>
        <mxCell id="xW_o7UDnN0EhlQ_JEsIn-10" value="author(request.user)" style="text;strokeColor=none;fillColor=none;align=left;verticalAlign=middle;spacingLeft=4;spacingRight=4;overflow=hidden;points=[[0,0.5],[1,0.5]];portConstraint=eastwest;rotatable=0;whiteSpace=wrap;html=1;" parent="xW_o7UDnN0EhlQ_JEsIn-7" vertex="1">
          <mxGeometry y="90" width="160" height="30" as="geometry" />
        </mxCell>
        <mxCell id="xW_o7UDnN0EhlQ_JEsIn-11" value="value(bool)" style="text;strokeColor=#6c8ebf;fillColor=#dae8fc;align=left;verticalAlign=middle;spacingLeft=4;spacingRight=4;overflow=hidden;points=[[0,0.5],[1,0.5]];portConstraint=eastwest;rotatable=0;whiteSpace=wrap;html=1;" parent="xW_o7UDnN0EhlQ_JEsIn-7" vertex="1">
          <mxGeometry y="120" width="160" height="30" as="geometry" />
        </mxCell>
        <mxCell id="xW_o7UDnN0EhlQ_JEsIn-13" style="edgeStyle=orthogonalEdgeStyle;rounded=0;orthogonalLoop=1;jettySize=auto;html=1;entryX=1;entryY=0.5;entryDx=0;entryDy=0;" parent="1" source="xW_o7UDnN0EhlQ_JEsIn-9" target="xW_o7UDnN0EhlQ_JEsIn-2" edge="1">
          <mxGeometry relative="1" as="geometry" />
        </mxCell>
        <mxCell id="xW_o7UDnN0EhlQ_JEsIn-14" value="User" style="swimlane;fontStyle=0;childLayout=stackLayout;horizontal=1;startSize=30;horizontalStack=0;resizeParent=1;resizeParentMax=0;resizeLast=0;collapsible=1;marginBottom=0;whiteSpace=wrap;html=1;fillColor=#dae8fc;strokeColor=#6c8ebf;" parent="1" vertex="1">
          <mxGeometry x="880" y="1080" width="160" height="90" as="geometry" />
        </mxCell>
        <mxCell id="xW_o7UDnN0EhlQ_JEsIn-15" value="id" style="text;strokeColor=none;fillColor=none;align=left;verticalAlign=middle;spacingLeft=4;spacingRight=4;overflow=hidden;points=[[0,0.5],[1,0.5]];portConstraint=eastwest;rotatable=0;whiteSpace=wrap;html=1;" parent="xW_o7UDnN0EhlQ_JEsIn-14" vertex="1">
          <mxGeometry y="30" width="160" height="30" as="geometry" />
        </mxCell>
        <mxCell id="xW_o7UDnN0EhlQ_JEsIn-16" value="username" style="text;strokeColor=none;fillColor=none;align=left;verticalAlign=middle;spacingLeft=4;spacingRight=4;overflow=hidden;points=[[0,0.5],[1,0.5]];portConstraint=eastwest;rotatable=0;whiteSpace=wrap;html=1;" parent="xW_o7UDnN0EhlQ_JEsIn-14" vertex="1">
          <mxGeometry y="60" width="160" height="30" as="geometry" />
        </mxCell>
        <mxCell id="xW_o7UDnN0EhlQ_JEsIn-20" style="edgeStyle=orthogonalEdgeStyle;rounded=0;orthogonalLoop=1;jettySize=auto;html=1;entryX=1.011;entryY=0.661;entryDx=0;entryDy=0;entryPerimeter=0;" parent="1" source="xW_o7UDnN0EhlQ_JEsIn-10" target="xW_o7UDnN0EhlQ_JEsIn-15" edge="1">
          <mxGeometry relative="1" as="geometry" />
        </mxCell>
        <mxCell id="xW_o7UDnN0EhlQ_JEsIn-27" value="ItemRating" style="swimlane;fontStyle=0;childLayout=stackLayout;horizontal=1;startSize=30;horizontalStack=0;resizeParent=1;resizeParentMax=0;resizeLast=0;collapsible=1;marginBottom=0;whiteSpace=wrap;html=1;fillColor=#f8cecc;strokeColor=#b85450;" parent="1" vertex="1">
          <mxGeometry x="1200" y="1040" width="160" height="150" as="geometry" />
        </mxCell>
        <mxCell id="xW_o7UDnN0EhlQ_JEsIn-28" value="id" style="text;strokeColor=none;fillColor=none;align=left;verticalAlign=middle;spacingLeft=4;spacingRight=4;overflow=hidden;points=[[0,0.5],[1,0.5]];portConstraint=eastwest;rotatable=0;whiteSpace=wrap;html=1;" parent="xW_o7UDnN0EhlQ_JEsIn-27" vertex="1">
          <mxGeometry y="30" width="160" height="30" as="geometry" />
        </mxCell>
        <mxCell id="xW_o7UDnN0EhlQ_JEsIn-29" value="article" style="text;strokeColor=none;fillColor=none;align=left;verticalAlign=middle;spacingLeft=4;spacingRight=4;overflow=hidden;points=[[0,0.5],[1,0.5]];portConstraint=eastwest;rotatable=0;whiteSpace=wrap;html=1;" parent="xW_o7UDnN0EhlQ_JEsIn-27" vertex="1">
          <mxGeometry y="60" width="160" height="30" as="geometry" />
        </mxCell>
        <mxCell id="xW_o7UDnN0EhlQ_JEsIn-30" value="author" style="text;strokeColor=none;fillColor=none;align=left;verticalAlign=middle;spacingLeft=4;spacingRight=4;overflow=hidden;points=[[0,0.5],[1,0.5]];portConstraint=eastwest;rotatable=0;whiteSpace=wrap;html=1;" parent="xW_o7UDnN0EhlQ_JEsIn-27" vertex="1">
          <mxGeometry y="90" width="160" height="30" as="geometry" />
        </mxCell>
        <mxCell id="xW_o7UDnN0EhlQ_JEsIn-31" value="value(bool)" style="text;strokeColor=none;fillColor=none;align=left;verticalAlign=middle;spacingLeft=4;spacingRight=4;overflow=hidden;points=[[0,0.5],[1,0.5]];portConstraint=eastwest;rotatable=0;whiteSpace=wrap;html=1;" parent="xW_o7UDnN0EhlQ_JEsIn-27" vertex="1">
          <mxGeometry y="120" width="160" height="30" as="geometry" />
        </mxCell>
        <mxCell id="xW_o7UDnN0EhlQ_JEsIn-32" value="Связи" style="text;html=1;strokeColor=none;fillColor=none;align=center;verticalAlign=middle;whiteSpace=wrap;rounded=0;" parent="1" vertex="1">
          <mxGeometry x="1080" y="850" width="60" height="30" as="geometry" />
        </mxCell>
        <mxCell id="vmLFZpmhNMiIunfOax3F-1" value="&lt;div style=&quot;background-color:#1e1f22;color:#bcbec4&quot;&gt;&lt;pre style=&quot;font-family:&#39;JetBrains Mono&#39;,monospace;font-size:26,3pt;&quot;&gt;django.middleware.security.SecurityMiddleware&lt;/pre&gt;&lt;/div&gt;" style="shape=parallelogram;perimeter=parallelogramPerimeter;whiteSpace=wrap;html=1;fixedSize=1;fillColor=#e1d5e7;strokeColor=#9673a6;" parent="1" vertex="1">
          <mxGeometry x="1070" y="550" width="330" height="30" as="geometry" />
        </mxCell>
        <mxCell id="vmLFZpmhNMiIunfOax3F-2" value="..." style="shape=parallelogram;perimeter=parallelogramPerimeter;whiteSpace=wrap;html=1;fixedSize=1;fillColor=#d5e8d4;strokeColor=#82b366;" parent="1" vertex="1">
          <mxGeometry x="1080" y="590" width="140" height="30" as="geometry" />
        </mxCell>
        <mxCell id="vmLFZpmhNMiIunfOax3F-3" value="&lt;div style=&quot;background-color:#1e1f22;color:#bcbec4&quot;&gt;&lt;pre style=&quot;font-family:&#39;JetBrains Mono&#39;,monospace;font-size:24,8pt;&quot;&gt;django.middleware.clickjacking.XFrameOptionsMiddleware&lt;/pre&gt;&lt;/div&gt;" style="shape=parallelogram;perimeter=parallelogramPerimeter;whiteSpace=wrap;html=1;fixedSize=1;fillColor=#fff2cc;strokeColor=#d6b656;" parent="1" vertex="1">
          <mxGeometry x="1070" y="630" width="390" height="30" as="geometry" />
        </mxCell>
        <mxCell id="vmLFZpmhNMiIunfOax3F-4" value="&lt;div style=&quot;background-color:#1e1f22;color:#bcbec4&quot;&gt;&lt;pre style=&quot;font-family:&#39;JetBrains Mono&#39;,monospace;font-size:30,0pt;&quot;&gt;def &lt;span style=&quot;color:#56a8f5;&quot;&gt;test&lt;/span&gt;(request):&lt;/pre&gt;&lt;/div&gt;" style="shape=cube;whiteSpace=wrap;html=1;boundedLbl=1;backgroundOutline=1;darkOpacity=0.05;darkOpacity2=0.1;fillColor=#f8cecc;strokeColor=#b85450;" parent="1" vertex="1">
          <mxGeometry x="1140" y="710" width="170" height="70" as="geometry" />
        </mxCell>
        <mxCell id="vmLFZpmhNMiIunfOax3F-6" style="edgeStyle=orthogonalEdgeStyle;rounded=0;orthogonalLoop=1;jettySize=auto;html=1;" parent="1" source="vmLFZpmhNMiIunfOax3F-5" target="vmLFZpmhNMiIunfOax3F-4" edge="1">
          <mxGeometry relative="1" as="geometry" />
        </mxCell>
        <mxCell id="vmLFZpmhNMiIunfOax3F-5" value="&lt;div style=&quot;background-color:#1e1f22;color:#bcbec4&quot;&gt;&lt;pre style=&quot;font-family:&#39;JetBrains Mono&#39;,monospace;font-size:30,0pt;&quot;&gt;path(&quot;&lt;span style=&quot;color:#6aab73;background-color:#293c40;&quot;&gt;test/&lt;/span&gt;&lt;span style=&quot;color:#6aab73;&quot;&gt;&quot;&lt;/span&gt;, views.test, &lt;span style=&quot;color:#aa4926;&quot;&gt;name&lt;/span&gt;=&lt;span style=&quot;color:#6aab73;&quot;&gt;&quot;test&quot;&lt;/span&gt;),&lt;/pre&gt;&lt;/div&gt;" style="shape=step;perimeter=stepPerimeter;whiteSpace=wrap;html=1;fixedSize=1;fillColor=#dae8fc;strokeColor=#6c8ebf;" parent="1" vertex="1">
          <mxGeometry x="1120" y="440" width="310" height="60" as="geometry" />
        </mxCell>
        <mxCell id="CfFgJpIFAq3FtqSEw6RY-13" value="User" style="swimlane;fontStyle=0;childLayout=stackLayout;horizontal=1;startSize=30;horizontalStack=0;resizeParent=1;resizeParentMax=0;resizeLast=0;collapsible=1;marginBottom=0;whiteSpace=wrap;html=1;fillColor=#dae8fc;strokeColor=#6c8ebf;" parent="1" vertex="1">
          <mxGeometry x="880" y="1360" width="160" height="90" as="geometry" />
        </mxCell>
        <mxCell id="CfFgJpIFAq3FtqSEw6RY-14" value="id" style="text;strokeColor=none;fillColor=none;align=left;verticalAlign=middle;spacingLeft=4;spacingRight=4;overflow=hidden;points=[[0,0.5],[1,0.5]];portConstraint=eastwest;rotatable=0;whiteSpace=wrap;html=1;" parent="CfFgJpIFAq3FtqSEw6RY-13" vertex="1">
          <mxGeometry y="30" width="160" height="30" as="geometry" />
        </mxCell>
        <mxCell id="CfFgJpIFAq3FtqSEw6RY-15" value="username" style="text;strokeColor=none;fillColor=none;align=left;verticalAlign=middle;spacingLeft=4;spacingRight=4;overflow=hidden;points=[[0,0.5],[1,0.5]];portConstraint=eastwest;rotatable=0;whiteSpace=wrap;html=1;" parent="CfFgJpIFAq3FtqSEw6RY-13" vertex="1">
          <mxGeometry y="60" width="160" height="30" as="geometry" />
        </mxCell>
        <mxCell id="CfFgJpIFAq3FtqSEw6RY-17" value="Action" style="swimlane;fontStyle=0;childLayout=stackLayout;horizontal=1;startSize=30;horizontalStack=0;resizeParent=1;resizeParentMax=0;resizeLast=0;collapsible=1;marginBottom=0;whiteSpace=wrap;html=1;fillColor=#f8cecc;strokeColor=#b85450;" parent="1" vertex="1">
          <mxGeometry x="1080" y="1480" width="160" height="90" as="geometry" />
        </mxCell>
        <mxCell id="CfFgJpIFAq3FtqSEw6RY-19" value="slug" style="text;strokeColor=none;fillColor=none;align=left;verticalAlign=middle;spacingLeft=4;spacingRight=4;overflow=hidden;points=[[0,0.5],[1,0.5]];portConstraint=eastwest;rotatable=0;whiteSpace=wrap;html=1;" parent="CfFgJpIFAq3FtqSEw6RY-17" vertex="1">
          <mxGeometry y="30" width="160" height="30" as="geometry" />
        </mxCell>
        <mxCell id="CfFgJpIFAq3FtqSEw6RY-18" value="description" style="text;strokeColor=none;fillColor=none;align=left;verticalAlign=middle;spacingLeft=4;spacingRight=4;overflow=hidden;points=[[0,0.5],[1,0.5]];portConstraint=eastwest;rotatable=0;whiteSpace=wrap;html=1;" parent="CfFgJpIFAq3FtqSEw6RY-17" vertex="1">
          <mxGeometry y="60" width="160" height="30" as="geometry" />
        </mxCell>
        <mxCell id="CfFgJpIFAq3FtqSEw6RY-22" value="Связи" style="text;html=1;strokeColor=#9673a6;fillColor=#e1d5e7;align=center;verticalAlign=middle;whiteSpace=wrap;rounded=0;" parent="1" vertex="1">
          <mxGeometry x="1050" y="1290" width="60" height="30" as="geometry" />
        </mxCell>
        <mxCell id="CfFgJpIFAq3FtqSEw6RY-23" value="Profile" style="swimlane;fontStyle=0;childLayout=stackLayout;horizontal=1;startSize=30;horizontalStack=0;resizeParent=1;resizeParentMax=0;resizeLast=0;collapsible=1;marginBottom=0;whiteSpace=wrap;html=1;fillColor=#d5e8d4;strokeColor=#82b366;" parent="1" vertex="1">
          <mxGeometry x="1120" y="1320" width="160" height="60" as="geometry" />
        </mxCell>
        <mxCell id="CfFgJpIFAq3FtqSEw6RY-24" value="user" style="text;strokeColor=none;fillColor=none;align=left;verticalAlign=middle;spacingLeft=4;spacingRight=4;overflow=hidden;points=[[0,0.5],[1,0.5]];portConstraint=eastwest;rotatable=0;whiteSpace=wrap;html=1;" parent="CfFgJpIFAq3FtqSEw6RY-23" vertex="1">
          <mxGeometry y="30" width="160" height="30" as="geometry" />
        </mxCell>
        <mxCell id="CfFgJpIFAq3FtqSEw6RY-26" style="edgeStyle=orthogonalEdgeStyle;rounded=0;orthogonalLoop=1;jettySize=auto;html=1;" parent="1" source="CfFgJpIFAq3FtqSEw6RY-24" target="CfFgJpIFAq3FtqSEw6RY-14" edge="1">
          <mxGeometry relative="1" as="geometry" />
        </mxCell>
        <mxCell id="CfFgJpIFAq3FtqSEw6RY-27" value="да/нет" style="shape=callout;whiteSpace=wrap;html=1;perimeter=calloutPerimeter;" parent="1" vertex="1">
          <mxGeometry x="880" y="1540" width="120" height="80" as="geometry" />
        </mxCell>
        <mxCell id="CfFgJpIFAq3FtqSEw6RY-30" value="Actor" style="shape=umlActor;verticalLabelPosition=bottom;verticalAlign=top;html=1;outlineConnect=0;" parent="1" vertex="1">
          <mxGeometry x="1105" y="1620" width="30" height="60" as="geometry" />
        </mxCell>
        <mxCell id="CfFgJpIFAq3FtqSEw6RY-31" value="" style="rounded=1;whiteSpace=wrap;html=1;" parent="1" vertex="1">
          <mxGeometry x="1080" y="1600" width="115" height="150" as="geometry" />
        </mxCell>
        <mxCell id="CfFgJpIFAq3FtqSEw6RY-32" value="Actor" style="shape=umlActor;verticalLabelPosition=bottom;verticalAlign=top;html=1;outlineConnect=0;" parent="1" vertex="1">
          <mxGeometry x="1115" y="1630" width="30" height="60" as="geometry" />
        </mxCell>
        <mxCell id="CfFgJpIFAq3FtqSEw6RY-33" value="Actor" style="shape=umlActor;verticalLabelPosition=bottom;verticalAlign=top;html=1;outlineConnect=0;" parent="1" vertex="1">
          <mxGeometry x="1125" y="1640" width="30" height="60" as="geometry" />
        </mxCell>
        <mxCell id="CfFgJpIFAq3FtqSEw6RY-34" value="Actor" style="shape=umlActor;verticalLabelPosition=bottom;verticalAlign=top;html=1;outlineConnect=0;" parent="1" vertex="1">
          <mxGeometry x="1425" y="1580" width="30" height="60" as="geometry" />
        </mxCell>
        <mxCell id="CfFgJpIFAq3FtqSEw6RY-35" value="" style="rounded=1;whiteSpace=wrap;html=1;" parent="1" vertex="1">
          <mxGeometry x="1400" y="1560" width="115" height="150" as="geometry" />
        </mxCell>
        <mxCell id="CfFgJpIFAq3FtqSEw6RY-36" value="Actor" style="shape=umlActor;verticalLabelPosition=bottom;verticalAlign=top;html=1;outlineConnect=0;" parent="1" vertex="1">
          <mxGeometry x="1435" y="1590" width="30" height="60" as="geometry" />
        </mxCell>
        <mxCell id="CfFgJpIFAq3FtqSEw6RY-37" value="Actor" style="shape=umlActor;verticalLabelPosition=bottom;verticalAlign=top;html=1;outlineConnect=0;" parent="1" vertex="1">
          <mxGeometry x="1445" y="1600" width="30" height="60" as="geometry" />
        </mxCell>
        <mxCell id="CfFgJpIFAq3FtqSEw6RY-38" value="Actor" style="shape=umlActor;verticalLabelPosition=bottom;verticalAlign=top;html=1;outlineConnect=0;" parent="1" vertex="1">
          <mxGeometry x="1135" y="1650" width="30" height="60" as="geometry" />
        </mxCell>
        <mxCell id="CfFgJpIFAq3FtqSEw6RY-39" value="Group" style="swimlane;fontStyle=0;childLayout=stackLayout;horizontal=1;startSize=30;horizontalStack=0;resizeParent=1;resizeParentMax=0;resizeLast=0;collapsible=1;marginBottom=0;whiteSpace=wrap;html=1;fillColor=#fff2cc;strokeColor=#d6b656;" parent="1" vertex="1">
          <mxGeometry x="1360" y="1400" width="160" height="90" as="geometry" />
        </mxCell>
        <mxCell id="CfFgJpIFAq3FtqSEw6RY-40" value="users(m2m)" style="text;strokeColor=none;fillColor=none;align=left;verticalAlign=middle;spacingLeft=4;spacingRight=4;overflow=hidden;points=[[0,0.5],[1,0.5]];portConstraint=eastwest;rotatable=0;whiteSpace=wrap;html=1;" parent="CfFgJpIFAq3FtqSEw6RY-39" vertex="1">
          <mxGeometry y="30" width="160" height="30" as="geometry" />
        </mxCell>
        <mxCell id="CfFgJpIFAq3FtqSEw6RY-41" value="actions(m2m)" style="text;strokeColor=none;fillColor=none;align=left;verticalAlign=middle;spacingLeft=4;spacingRight=4;overflow=hidden;points=[[0,0.5],[1,0.5]];portConstraint=eastwest;rotatable=0;whiteSpace=wrap;html=1;" parent="CfFgJpIFAq3FtqSEw6RY-39" vertex="1">
          <mxGeometry y="60" width="160" height="30" as="geometry" />
        </mxCell>
        <mxCell id="CfFgJpIFAq3FtqSEw6RY-47" style="edgeStyle=orthogonalEdgeStyle;rounded=0;orthogonalLoop=1;jettySize=auto;html=1;entryX=0;entryY=0.5;entryDx=0;entryDy=0;" parent="1" source="CfFgJpIFAq3FtqSEw6RY-19" target="CfFgJpIFAq3FtqSEw6RY-41" edge="1">
          <mxGeometry relative="1" as="geometry" />
        </mxCell>
        <mxCell id="CfFgJpIFAq3FtqSEw6RY-48" style="edgeStyle=orthogonalEdgeStyle;rounded=0;orthogonalLoop=1;jettySize=auto;html=1;entryX=0;entryY=0.5;entryDx=0;entryDy=0;" parent="1" source="CfFgJpIFAq3FtqSEw6RY-14" target="CfFgJpIFAq3FtqSEw6RY-40" edge="1">
          <mxGeometry relative="1" as="geometry" />
        </mxCell>
        <mxCell id="zW5cg0SdhXVSHi8XT4jg-1" value="web" style="ellipse;shape=cloud;whiteSpace=wrap;html=1;" vertex="1" parent="1">
          <mxGeometry x="2080" y="1280" width="120" height="80" as="geometry" />
        </mxCell>
        <mxCell id="zW5cg0SdhXVSHi8XT4jg-14" style="edgeStyle=orthogonalEdgeStyle;rounded=0;orthogonalLoop=1;jettySize=auto;html=1;" edge="1" parent="1" source="zW5cg0SdhXVSHi8XT4jg-2" target="zW5cg0SdhXVSHi8XT4jg-13">
          <mxGeometry relative="1" as="geometry" />
        </mxCell>
        <mxCell id="zW5cg0SdhXVSHi8XT4jg-2" value="Actor" style="shape=umlActor;verticalLabelPosition=bottom;verticalAlign=top;html=1;outlineConnect=0;" vertex="1" parent="1">
          <mxGeometry x="1880" y="1280" width="30" height="60" as="geometry" />
        </mxCell>
        <mxCell id="zW5cg0SdhXVSHi8XT4jg-9" style="edgeStyle=orthogonalEdgeStyle;rounded=0;orthogonalLoop=1;jettySize=auto;html=1;" edge="1" parent="1" source="zW5cg0SdhXVSHi8XT4jg-3" target="zW5cg0SdhXVSHi8XT4jg-5">
          <mxGeometry relative="1" as="geometry" />
        </mxCell>
        <mxCell id="zW5cg0SdhXVSHi8XT4jg-3" value="Actor" style="shape=umlActor;verticalLabelPosition=bottom;verticalAlign=top;html=1;outlineConnect=0;" vertex="1" parent="1">
          <mxGeometry x="1920" y="1640" width="30" height="60" as="geometry" />
        </mxCell>
        <mxCell id="zW5cg0SdhXVSHi8XT4jg-4" value="" style="shape=image;html=1;verticalAlign=top;verticalLabelPosition=bottom;labelBackgroundColor=#ffffff;imageAspect=0;aspect=fixed;image=https://cdn4.iconfinder.com/data/icons/transportation-190/1000/carrier_office_people_person_people_carrier_people_business_success-128.png" vertex="1" parent="1">
          <mxGeometry x="2120" y="1650" width="128" height="128" as="geometry" />
        </mxCell>
        <mxCell id="zW5cg0SdhXVSHi8XT4jg-6" style="edgeStyle=orthogonalEdgeStyle;rounded=0;orthogonalLoop=1;jettySize=auto;html=1;" edge="1" parent="1" source="zW5cg0SdhXVSHi8XT4jg-5" target="zW5cg0SdhXVSHi8XT4jg-4">
          <mxGeometry relative="1" as="geometry" />
        </mxCell>
        <mxCell id="zW5cg0SdhXVSHi8XT4jg-8" style="edgeStyle=orthogonalEdgeStyle;rounded=0;orthogonalLoop=1;jettySize=auto;html=1;" edge="1" parent="1" source="zW5cg0SdhXVSHi8XT4jg-5" target="zW5cg0SdhXVSHi8XT4jg-7">
          <mxGeometry relative="1" as="geometry" />
        </mxCell>
        <mxCell id="zW5cg0SdhXVSHi8XT4jg-5" value="(PY)QT" style="shape=note;whiteSpace=wrap;html=1;backgroundOutline=1;darkOpacity=0.05;" vertex="1" parent="1">
          <mxGeometry x="2000" y="1640" width="80" height="80" as="geometry" />
        </mxCell>
        <mxCell id="zW5cg0SdhXVSHi8XT4jg-7" value="" style="sketch=0;pointerEvents=1;shadow=0;dashed=0;html=1;strokeColor=none;fillColor=#505050;labelPosition=center;verticalLabelPosition=bottom;verticalAlign=top;outlineConnect=0;align=center;shape=mxgraph.office.servers.reverse_proxy;" vertex="1" parent="1">
          <mxGeometry x="2140.75" y="1570" width="86.5" height="86.5" as="geometry" />
        </mxCell>
        <mxCell id="zW5cg0SdhXVSHi8XT4jg-11" value="Python / PyQt6 / web ..." style="text;html=1;strokeColor=none;fillColor=none;align=center;verticalAlign=middle;whiteSpace=wrap;rounded=0;" vertex="1" parent="1">
          <mxGeometry x="2000" y="1510" width="150" height="30" as="geometry" />
        </mxCell>
        <mxCell id="zW5cg0SdhXVSHi8XT4jg-13" value="chrome" style="ellipse;whiteSpace=wrap;html=1;aspect=fixed;" vertex="1" parent="1">
          <mxGeometry x="1960" y="1280" width="80" height="80" as="geometry" />
        </mxCell>
        <mxCell id="zW5cg0SdhXVSHi8XT4jg-16" style="edgeStyle=orthogonalEdgeStyle;rounded=0;orthogonalLoop=1;jettySize=auto;html=1;entryX=0.07;entryY=0.4;entryDx=0;entryDy=0;entryPerimeter=0;" edge="1" parent="1" source="zW5cg0SdhXVSHi8XT4jg-13" target="zW5cg0SdhXVSHi8XT4jg-1">
          <mxGeometry relative="1" as="geometry" />
        </mxCell>
        <mxCell id="zW5cg0SdhXVSHi8XT4jg-18" value="Python / django/drf/fastapi / web ..." style="text;html=1;strokeColor=none;fillColor=none;align=center;verticalAlign=middle;whiteSpace=wrap;rounded=0;" vertex="1" parent="1">
          <mxGeometry x="1960" y="1200" width="200" height="40" as="geometry" />
        </mxCell>
        <mxCell id="zW5cg0SdhXVSHi8XT4jg-19" value="DB" style="shape=cylinder3;whiteSpace=wrap;html=1;boundedLbl=1;backgroundOutline=1;size=15;" vertex="1" parent="1">
          <mxGeometry x="2360" y="1215" width="60" height="80" as="geometry" />
        </mxCell>
        <mxCell id="zW5cg0SdhXVSHi8XT4jg-20" style="edgeStyle=orthogonalEdgeStyle;rounded=0;orthogonalLoop=1;jettySize=auto;html=1;entryX=0.01;entryY=0.587;entryDx=0;entryDy=0;entryPerimeter=0;" edge="1" parent="1" source="zW5cg0SdhXVSHi8XT4jg-1" target="zW5cg0SdhXVSHi8XT4jg-19">
          <mxGeometry relative="1" as="geometry" />
        </mxCell>
        <mxCell id="zW5cg0SdhXVSHi8XT4jg-22" value="GET" style="text;html=1;strokeColor=none;fillColor=none;align=center;verticalAlign=middle;whiteSpace=wrap;rounded=0;" vertex="1" parent="1">
          <mxGeometry x="2200" y="1470" width="60" height="30" as="geometry" />
        </mxCell>
        <mxCell id="zW5cg0SdhXVSHi8XT4jg-23" value="60" style="html=1;verticalLabelPosition=bottom;align=center;labelBackgroundColor=#ffffff;verticalAlign=top;strokeWidth=2;strokeColor=#0080F0;shadow=0;dashed=0;shape=mxgraph.ios7.icons.reload;" vertex="1" parent="1">
          <mxGeometry x="2280" y="1500" width="70" height="70" as="geometry" />
        </mxCell>
        <mxCell id="zW5cg0SdhXVSHi8XT4jg-24" value="" style="shape=flexArrow;endArrow=classic;html=1;rounded=0;fillColor=#d5e8d4;strokeColor=#82b366;" edge="1" parent="1" source="zW5cg0SdhXVSHi8XT4jg-23" target="zW5cg0SdhXVSHi8XT4jg-1">
          <mxGeometry width="50" height="50" relative="1" as="geometry">
            <mxPoint x="2300" y="1480" as="sourcePoint" />
            <mxPoint x="2350" y="1430" as="targetPoint" />
          </mxGeometry>
        </mxCell>
        <mxCell id="zW5cg0SdhXVSHi8XT4jg-25" value="30" style="html=1;verticalLabelPosition=bottom;align=center;labelBackgroundColor=#ffffff;verticalAlign=top;strokeWidth=2;strokeColor=#0080F0;shadow=0;dashed=0;shape=mxgraph.ios7.icons.reload;" vertex="1" parent="1">
          <mxGeometry x="2370" y="1500" width="70" height="70" as="geometry" />
        </mxCell>
        <mxCell id="zW5cg0SdhXVSHi8XT4jg-26" value="loopSetting" style="text;html=1;strokeColor=none;fillColor=none;align=center;verticalAlign=middle;whiteSpace=wrap;rounded=0;" vertex="1" parent="1">
          <mxGeometry x="2285" y="1595" width="60" height="30" as="geometry" />
        </mxCell>
        <mxCell id="zW5cg0SdhXVSHi8XT4jg-27" value="loopEventCurrent" style="text;html=1;strokeColor=none;fillColor=none;align=center;verticalAlign=middle;whiteSpace=wrap;rounded=0;" vertex="1" parent="1">
          <mxGeometry x="2375" y="1595" width="60" height="30" as="geometry" />
        </mxCell>
        <mxCell id="zW5cg0SdhXVSHi8XT4jg-28" value="" style="endArrow=none;html=1;rounded=0;" edge="1" parent="1">
          <mxGeometry width="50" height="50" relative="1" as="geometry">
            <mxPoint x="2440" y="1760" as="sourcePoint" />
            <mxPoint x="2560" y="1760" as="targetPoint" />
          </mxGeometry>
        </mxCell>
        <mxCell id="zW5cg0SdhXVSHi8XT4jg-29" value="" style="endArrow=none;html=1;rounded=0;" edge="1" parent="1">
          <mxGeometry width="50" height="50" relative="1" as="geometry">
            <mxPoint x="2440" y="1760" as="sourcePoint" />
            <mxPoint x="2440" y="1680" as="targetPoint" />
          </mxGeometry>
        </mxCell>
        <mxCell id="zW5cg0SdhXVSHi8XT4jg-30" value="Text" style="text;html=1;strokeColor=none;fillColor=none;align=center;verticalAlign=middle;whiteSpace=wrap;rounded=0;" vertex="1" parent="1">
          <mxGeometry x="2470" y="1770" width="60" height="30" as="geometry" />
        </mxCell>
        <mxCell id="zW5cg0SdhXVSHi8XT4jg-31" value="Text" style="text;html=1;strokeColor=none;fillColor=none;align=center;verticalAlign=middle;whiteSpace=wrap;rounded=0;" vertex="1" parent="1">
          <mxGeometry x="2375" y="1699" width="60" height="30" as="geometry" />
        </mxCell>
        <mxCell id="zW5cg0SdhXVSHi8XT4jg-32" value="" style="endArrow=classic;html=1;rounded=0;" edge="1" parent="1">
          <mxGeometry width="50" height="50" relative="1" as="geometry">
            <mxPoint x="2450" y="1760" as="sourcePoint" />
            <mxPoint x="2490" y="1720" as="targetPoint" />
          </mxGeometry>
        </mxCell>
        <mxCell id="zW5cg0SdhXVSHi8XT4jg-33" value="" style="endArrow=classic;html=1;rounded=0;" edge="1" parent="1">
          <mxGeometry width="50" height="50" relative="1" as="geometry">
            <mxPoint x="2490" y="1720" as="sourcePoint" />
            <mxPoint x="2560" y="1680" as="targetPoint" />
          </mxGeometry>
        </mxCell>
        <mxCell id="zW5cg0SdhXVSHi8XT4jg-34" value="30" style="html=1;verticalLabelPosition=bottom;align=center;labelBackgroundColor=#ffffff;verticalAlign=top;strokeWidth=2;strokeColor=#0080F0;shadow=0;dashed=0;shape=mxgraph.ios7.icons.reload;" vertex="1" parent="1">
          <mxGeometry x="2470" y="1500" width="70" height="70" as="geometry" />
        </mxCell>
        <mxCell id="zW5cg0SdhXVSHi8XT4jg-35" value="loopEventHistory" style="text;html=1;strokeColor=none;fillColor=none;align=center;verticalAlign=middle;whiteSpace=wrap;rounded=0;" vertex="1" parent="1">
          <mxGeometry x="2475" y="1595" width="60" height="30" as="geometry" />
        </mxCell>
        <mxCell id="zW5cg0SdhXVSHi8XT4jg-36" value="&lt;div style=&quot;background-color:#1e1f22;color:#bcbec4&quot;&gt;&lt;pre style=&quot;font-family:&#39;JetBrains Mono&#39;,monospace;font-size:22,5pt;&quot;&gt;temp_plan_high&lt;/pre&gt;&lt;/div&gt;" style="shape=cylinder3;whiteSpace=wrap;html=1;boundedLbl=1;backgroundOutline=1;size=15;" vertex="1" parent="1">
          <mxGeometry x="2855" y="1450" width="120" height="80" as="geometry" />
        </mxCell>
        <mxCell id="zW5cg0SdhXVSHi8XT4jg-37" value="" style="sketch=0;pointerEvents=1;shadow=0;dashed=0;html=1;strokeColor=none;fillColor=#505050;labelPosition=center;verticalLabelPosition=bottom;verticalAlign=top;outlineConnect=0;align=center;shape=mxgraph.office.servers.reverse_proxy;" vertex="1" parent="1">
          <mxGeometry x="2855" y="1626.75" width="86.5" height="86.5" as="geometry" />
        </mxCell>
        <mxCell id="zW5cg0SdhXVSHi8XT4jg-38" value="+" style="rhombus;whiteSpace=wrap;html=1;" vertex="1" parent="1">
          <mxGeometry x="2911.5" y="1596.75" width="30" height="30" as="geometry" />
        </mxCell>
        <mxCell id="zW5cg0SdhXVSHi8XT4jg-39" value="-" style="rhombus;whiteSpace=wrap;html=1;" vertex="1" parent="1">
          <mxGeometry x="2945" y="1615" width="30" height="30" as="geometry" />
        </mxCell>
        <mxCell id="zW5cg0SdhXVSHi8XT4jg-40" value="UI" style="shape=note;whiteSpace=wrap;html=1;backgroundOutline=1;darkOpacity=0.05;" vertex="1" parent="1">
          <mxGeometry x="2650" y="1588.5" width="80" height="83" as="geometry" />
        </mxCell>
        <mxCell id="zW5cg0SdhXVSHi8XT4jg-41" value="web" style="ellipse;shape=cloud;whiteSpace=wrap;html=1;" vertex="1" parent="1">
          <mxGeometry x="2620" y="1460" width="120" height="80" as="geometry" />
        </mxCell>
        <mxCell id="zW5cg0SdhXVSHi8XT4jg-43" value="" style="shape=flexArrow;endArrow=classic;html=1;rounded=0;fillColor=#dae8fc;strokeColor=#6c8ebf;" edge="1" parent="1">
          <mxGeometry width="50" height="50" relative="1" as="geometry">
            <mxPoint x="2750" y="1510" as="sourcePoint" />
            <mxPoint x="2840" y="1510" as="targetPoint" />
          </mxGeometry>
        </mxCell>
        <mxCell id="zW5cg0SdhXVSHi8XT4jg-44" value="" style="shape=flexArrow;endArrow=classic;html=1;rounded=0;fillColor=#d5e8d4;strokeColor=#82b366;" edge="1" parent="1">
          <mxGeometry width="50" height="50" relative="1" as="geometry">
            <mxPoint x="2840" y="1480" as="sourcePoint" />
            <mxPoint x="2750" y="1480" as="targetPoint" />
          </mxGeometry>
        </mxCell>
        <mxCell id="zW5cg0SdhXVSHi8XT4jg-45" value="" style="shape=flexArrow;endArrow=classic;html=1;rounded=0;fillColor=#d5e8d4;strokeColor=#82b366;" edge="1" parent="1">
          <mxGeometry width="50" height="50" relative="1" as="geometry">
            <mxPoint x="2855" y="1540" as="sourcePoint" />
            <mxPoint x="2735" y="1580" as="targetPoint" />
          </mxGeometry>
        </mxCell>
        <mxCell id="zW5cg0SdhXVSHi8XT4jg-46" value="" style="shape=flexArrow;endArrow=classic;html=1;rounded=0;fillColor=#dae8fc;strokeColor=#6c8ebf;entryX=0.519;entryY=1.043;entryDx=0;entryDy=0;entryPerimeter=0;" edge="1" parent="1" target="zW5cg0SdhXVSHi8XT4jg-36">
          <mxGeometry width="50" height="50" relative="1" as="geometry">
            <mxPoint x="2915" y="1579.52" as="sourcePoint" />
            <mxPoint x="3005" y="1579.52" as="targetPoint" />
          </mxGeometry>
        </mxCell>
        <mxCell id="zW5cg0SdhXVSHi8XT4jg-47" value="" style="shape=flexArrow;endArrow=classic;html=1;rounded=0;fillColor=#dae8fc;strokeColor=#6c8ebf;entryX=0.519;entryY=1.043;entryDx=0;entryDy=0;entryPerimeter=0;" edge="1" parent="1">
          <mxGeometry width="50" height="50" relative="1" as="geometry">
            <mxPoint x="2959" y="1586.52" as="sourcePoint" />
            <mxPoint x="2961" y="1540" as="targetPoint" />
          </mxGeometry>
        </mxCell>
        <mxCell id="zW5cg0SdhXVSHi8XT4jg-48" value="SOLID" style="text;html=1;strokeColor=none;fillColor=none;align=center;verticalAlign=middle;whiteSpace=wrap;rounded=0;" vertex="1" parent="1">
          <mxGeometry x="2780" y="1410" width="60" height="30" as="geometry" />
        </mxCell>
        <mxCell id="zW5cg0SdhXVSHi8XT4jg-50" value="" style="endArrow=classic;startArrow=classic;html=1;rounded=0;fillColor=#f8cecc;strokeColor=#b85450;" edge="1" parent="1">
          <mxGeometry width="50" height="50" relative="1" as="geometry">
            <mxPoint x="2820" y="1500" as="sourcePoint" />
            <mxPoint x="2920" y="1570" as="targetPoint" />
          </mxGeometry>
        </mxCell>
      </root>
    </mxGraphModel>
  </diagram>
</mxfile>
